<mxfile host="app.diagrams.net" modified="2024-03-02T10:31:22.983Z" agent="Mozilla/5.0 (X11; Ubuntu; Linux x86_64; rv:123.0) Gecko/20100101 Firefox/123.0" etag="BLw9zpIXX-f-eLWUdMEG" version="24.0.0" type="device">
  <diagram name="Page-1" id="ys0ExuxzLBu0VsqxAxc-">
    <mxGraphModel dx="1143" dy="374" grid="1" gridSize="10" guides="1" tooltips="1" connect="1" arrows="1" fold="1" page="0" pageScale="1" pageWidth="850" pageHeight="1100" math="0" shadow="0">
      <root>
        <mxCell id="0" />
        <mxCell id="1" parent="0" />
        <mxCell id="b3AyvaaCDcfnvMVjKgx7-10" value="" style="edgeStyle=orthogonalEdgeStyle;rounded=0;orthogonalLoop=1;jettySize=auto;html=1;" parent="1" source="b3AyvaaCDcfnvMVjKgx7-1" target="b3AyvaaCDcfnvMVjKgx7-9" edge="1">
          <mxGeometry relative="1" as="geometry" />
        </mxCell>
        <mxCell id="b3AyvaaCDcfnvMVjKgx7-1" value="Conveyor starts " style="rounded=0;whiteSpace=wrap;html=1;fillColor=#d5e8d4;strokeColor=#82b366;gradientColor=#97d077;" parent="1" vertex="1">
          <mxGeometry x="-200" y="40" width="120" height="40" as="geometry" />
        </mxCell>
        <mxCell id="b3AyvaaCDcfnvMVjKgx7-12" value="" style="edgeStyle=orthogonalEdgeStyle;rounded=0;orthogonalLoop=1;jettySize=auto;html=1;" parent="1" source="b3AyvaaCDcfnvMVjKgx7-2" target="b3AyvaaCDcfnvMVjKgx7-6" edge="1">
          <mxGeometry relative="1" as="geometry" />
        </mxCell>
        <mxCell id="fqznEAou6dWFneT0OShK-2" value="" style="edgeStyle=orthogonalEdgeStyle;rounded=0;orthogonalLoop=1;jettySize=auto;html=1;" edge="1" parent="1" source="b3AyvaaCDcfnvMVjKgx7-2" target="b3AyvaaCDcfnvMVjKgx7-3">
          <mxGeometry relative="1" as="geometry" />
        </mxCell>
        <mxCell id="b3AyvaaCDcfnvMVjKgx7-2" value="Object detected in the workspace by the Camera" style="rounded=0;whiteSpace=wrap;html=1;fillColor=#f5f5f5;gradientColor=#b3b3b3;strokeColor=#666666;" parent="1" vertex="1">
          <mxGeometry x="153" y="35" width="120" height="50" as="geometry" />
        </mxCell>
        <mxCell id="b3AyvaaCDcfnvMVjKgx7-3" value="IR Sensor detects object and stops the conveyor" style="rounded=0;whiteSpace=wrap;html=1;fillColor=#f8cecc;gradientColor=#ea6b66;strokeColor=#b85450;" parent="1" vertex="1">
          <mxGeometry x="327" y="35" width="120" height="51" as="geometry" />
        </mxCell>
        <mxCell id="b3AyvaaCDcfnvMVjKgx7-18" value="" style="edgeStyle=orthogonalEdgeStyle;rounded=0;orthogonalLoop=1;jettySize=auto;html=1;" parent="1" source="b3AyvaaCDcfnvMVjKgx7-4" target="b3AyvaaCDcfnvMVjKgx7-5" edge="1">
          <mxGeometry relative="1" as="geometry" />
        </mxCell>
        <mxCell id="b3AyvaaCDcfnvMVjKgx7-4" value="Calculate object&#39;s position in the workspace w.r.t to the Robotic Arm" style="rounded=0;whiteSpace=wrap;html=1;fillColor=#cdeb8b;strokeColor=#36393d;" parent="1" vertex="1">
          <mxGeometry x="153" y="206" width="120" height="70" as="geometry" />
        </mxCell>
        <mxCell id="b3AyvaaCDcfnvMVjKgx7-19" value="" style="edgeStyle=orthogonalEdgeStyle;rounded=0;orthogonalLoop=1;jettySize=auto;html=1;" parent="1" source="b3AyvaaCDcfnvMVjKgx7-5" target="b3AyvaaCDcfnvMVjKgx7-7" edge="1">
          <mxGeometry relative="1" as="geometry" />
        </mxCell>
        <mxCell id="b3AyvaaCDcfnvMVjKgx7-5" value="Robotic Arm reaches the workspace &amp;amp; picks up the object" style="rounded=0;whiteSpace=wrap;html=1;fillColor=#ffcccc;strokeColor=#36393d;" parent="1" vertex="1">
          <mxGeometry x="334" y="207" width="120" height="68" as="geometry" />
        </mxCell>
        <mxCell id="fqznEAou6dWFneT0OShK-1" value="" style="edgeStyle=orthogonalEdgeStyle;rounded=0;orthogonalLoop=1;jettySize=auto;html=1;" edge="1" parent="1" source="b3AyvaaCDcfnvMVjKgx7-6" target="b3AyvaaCDcfnvMVjKgx7-4">
          <mxGeometry relative="1" as="geometry" />
        </mxCell>
        <mxCell id="b3AyvaaCDcfnvMVjKgx7-6" value="Object&#39;s color detected " style="rounded=0;whiteSpace=wrap;html=1;fillColor=#dae8fc;gradientColor=#7ea6e0;strokeColor=#6c8ebf;" parent="1" vertex="1">
          <mxGeometry x="153" y="120" width="120" height="51" as="geometry" />
        </mxCell>
        <mxCell id="b3AyvaaCDcfnvMVjKgx7-7" value="Robotic Arm places the object at a fixed location based on the detected color" style="rounded=0;whiteSpace=wrap;html=1;fillColor=#ffcccc;strokeColor=#36393d;" parent="1" vertex="1">
          <mxGeometry x="334" y="305" width="120" height="70" as="geometry" />
        </mxCell>
        <mxCell id="b3AyvaaCDcfnvMVjKgx7-11" value="" style="edgeStyle=orthogonalEdgeStyle;rounded=0;orthogonalLoop=1;jettySize=auto;html=1;" parent="1" source="b3AyvaaCDcfnvMVjKgx7-9" target="b3AyvaaCDcfnvMVjKgx7-2" edge="1">
          <mxGeometry relative="1" as="geometry" />
        </mxCell>
        <mxCell id="b3AyvaaCDcfnvMVjKgx7-9" value="Arm reaches the observational pose to detect objects in the workspace" style="rounded=0;whiteSpace=wrap;html=1;fillColor=#e6d0de;gradientColor=#d5739d;strokeColor=#996185;" parent="1" vertex="1">
          <mxGeometry x="-21" y="25" width="120" height="70" as="geometry" />
        </mxCell>
        <mxCell id="b3AyvaaCDcfnvMVjKgx7-21" value="" style="endArrow=classic;html=1;rounded=0;entryX=0.5;entryY=1;entryDx=0;entryDy=0;exitX=0;exitY=0.5;exitDx=0;exitDy=0;" parent="1" source="b3AyvaaCDcfnvMVjKgx7-7" target="b3AyvaaCDcfnvMVjKgx7-1" edge="1">
          <mxGeometry width="50" height="50" relative="1" as="geometry">
            <mxPoint x="153" y="340" as="sourcePoint" />
            <mxPoint x="80" y="180" as="targetPoint" />
            <Array as="points">
              <mxPoint x="-140" y="340" />
            </Array>
          </mxGeometry>
        </mxCell>
        <mxCell id="fqznEAou6dWFneT0OShK-4" value="" style="endArrow=none;dashed=1;html=1;rounded=1;curved=0;strokeWidth=2;strokeColor=#000099;" edge="1" parent="1">
          <mxGeometry width="50" height="50" relative="1" as="geometry">
            <mxPoint x="120" y="20" as="sourcePoint" />
            <mxPoint x="120" y="290" as="targetPoint" />
          </mxGeometry>
        </mxCell>
        <mxCell id="fqznEAou6dWFneT0OShK-5" value="" style="endArrow=none;dashed=1;html=1;rounded=1;curved=0;strokeWidth=2;strokeColor=#000099;" edge="1" parent="1">
          <mxGeometry width="50" height="50" relative="1" as="geometry">
            <mxPoint x="300" y="20" as="sourcePoint" />
            <mxPoint x="300" y="290" as="targetPoint" />
          </mxGeometry>
        </mxCell>
        <mxCell id="fqznEAou6dWFneT0OShK-6" value="" style="endArrow=none;dashed=1;html=1;rounded=1;curved=0;strokeWidth=2;strokeColor=#000099;" edge="1" parent="1">
          <mxGeometry width="50" height="50" relative="1" as="geometry">
            <mxPoint x="120" y="290" as="sourcePoint" />
            <mxPoint x="300" y="290" as="targetPoint" />
          </mxGeometry>
        </mxCell>
        <mxCell id="fqznEAou6dWFneT0OShK-7" value="" style="endArrow=none;dashed=1;html=1;rounded=1;curved=0;strokeWidth=2;strokeColor=#000099;" edge="1" parent="1">
          <mxGeometry width="50" height="50" relative="1" as="geometry">
            <mxPoint x="120" y="20" as="sourcePoint" />
            <mxPoint x="300" y="20" as="targetPoint" />
          </mxGeometry>
        </mxCell>
      </root>
    </mxGraphModel>
  </diagram>
</mxfile>
